<svg version="1.1" id="Layer_1" xmlns="http://www.w3.org/2000/svg" xmlns:xlink="http://www.w3.org/1999/xlink" x="0px" y="0px"
	 width="100%" viewBox="0 0 180 180" enable-background="new 0 0 180 180" xml:space="preserve">
<path fill="#1A1B1B" opacity="1.000000" stroke="none" 
	d="
M84.000000,181.000000 
	C56.000000,181.000000 28.500004,181.000000 1.000004,181.000000 
	C1.000002,121.000008 1.000002,61.000011 1.000001,1.000012 
	C60.999989,1.000008 120.999977,1.000008 180.999969,1.000004 
	C180.999985,60.999989 180.999985,120.999977 181.000000,180.999985 
	C148.833328,181.000000 116.666664,181.000000 84.000000,181.000000 
M119.941864,72.976761 
	C125.032784,72.733292 130.123215,72.298904 135.214737,72.285957 
	C145.942413,72.258690 151.745377,76.537239 155.597809,86.520035 
	C156.079025,87.766953 157.917938,89.075111 159.284943,89.273849 
	C162.180801,89.694862 165.180405,89.402199 168.101212,89.402199 
	C168.857849,75.489563 156.399231,61.753254 141.604523,60.007893 
	C136.672333,59.426033 131.548721,60.248680 126.673172,59.449638 
	C116.112579,57.718872 109.638153,61.612377 105.714806,71.598938 
	C103.359283,77.594742 99.376198,82.951134 95.962616,88.876015 
	C109.663132,90.565506 109.661095,90.564339 115.913010,79.634865 
	C117.069382,77.613312 118.249672,75.605423 119.941864,72.976761 
M120.510086,122.776344 
	C128.137924,122.542831 135.883408,123.070061 143.368362,121.912575 
	C157.602280,119.711403 169.224289,105.608513 167.945633,93.183533 
	C164.041321,93.183533 160.132812,93.183533 156.318375,93.183533 
	C152.008804,106.190826 146.693451,110.001434 133.136261,110.010361 
	C127.485947,110.014084 121.833801,109.944252 116.186661,110.080780 
	C114.826813,110.113655 112.864464,110.409088 112.242584,111.314316 
	C109.866188,114.773422 107.923683,118.530609 105.472191,122.777603 
	C110.891930,122.777603 115.204315,122.777603 120.510086,122.776344 
M60.404594,89.398819 
	C63.485119,88.675369 66.565643,87.951920 70.231316,87.091049 
	C72.373581,89.733757 79.008095,90.687996 85.744713,88.348442 
	C80.310608,78.962631 74.904549,69.625267 69.088249,59.579319 
	C63.131088,69.904015 57.772293,79.191658 51.883514,89.397835 
	C55.040882,89.397835 57.295853,89.397835 60.404594,89.398819 
M103.109299,101.641022 
	C104.582039,98.959724 106.054779,96.278427 108.091843,92.569695 
	C101.464005,93.952133 95.187691,90.234215 90.747246,96.369011 
	C86.214516,89.840134 79.998154,94.194359 73.543045,92.601715 
	C79.646629,103.174194 85.062401,112.555260 90.910522,122.685219 
	C95.153839,115.387711 98.959190,108.843399 103.109299,101.641022 
M50.226330,93.095200 
	C49.268169,94.161491 48.310005,95.227783 47.217854,96.443184 
	C42.841446,89.914604 36.534004,94.085487 29.718218,92.497902 
	C35.910225,103.228027 41.364548,112.679825 47.176449,122.751266 
	C53.130962,112.423027 58.559719,103.006729 64.363419,92.940079 
	C59.330498,92.940079 55.216740,92.940079 50.226330,93.095200 
M17.036182,70.517227 
	C20.102718,75.836296 23.080400,81.210144 26.301056,86.434196 
	C27.063610,87.671097 28.574844,89.116257 29.857645,89.237350 
	C33.749409,89.604759 37.697990,89.370331 42.568886,89.370331 
	C36.776058,79.362419 31.513706,70.211151 26.150272,61.119514 
	C25.725428,60.399353 24.613983,59.691647 23.796715,59.661869 
	C19.726065,59.513569 15.647078,59.594128 10.822172,59.594128 
	C13.099517,63.586533 14.892495,66.729797 17.036182,70.517227 
z"/>
<path fill="#01B0DB" opacity="1.000000" stroke="none" 
	d="
M119.680389,73.283997 
	C118.249672,75.605423 117.069382,77.613312 115.913010,79.634865 
	C109.661095,90.564339 109.663132,90.565506 95.962616,88.876015 
	C99.376198,82.951134 103.359283,77.594742 105.714806,71.598938 
	C109.638153,61.612377 116.112579,57.718872 126.673172,59.449638 
	C131.548721,60.248680 136.672333,59.426033 141.604523,60.007893 
	C156.399231,61.753254 168.857849,75.489563 168.101212,89.402199 
	C165.180405,89.402199 162.180801,89.694862 159.284943,89.273849 
	C157.917938,89.075111 156.079025,87.766953 155.597809,86.520035 
	C151.745377,76.537239 145.942413,72.258690 135.214737,72.285957 
	C130.123215,72.298904 125.032784,72.733292 119.680389,73.283997 
z"/>
<path fill="#C6C6C6" opacity="1.000000" stroke="none" 
	d="
M120.013397,122.776978 
	C115.204315,122.777603 110.891930,122.777603 105.472191,122.777603 
	C107.923683,118.530609 109.866188,114.773422 112.242584,111.314316 
	C112.864464,110.409088 114.826813,110.113655 116.186661,110.080780 
	C121.833801,109.944252 127.485947,110.014084 133.136261,110.010361 
	C146.693451,110.001434 152.008804,106.190826 156.318375,93.183533 
	C160.132812,93.183533 164.041321,93.183533 167.945633,93.183533 
	C169.224289,105.608513 157.602280,119.711403 143.368362,121.912575 
	C135.883408,123.070061 128.137924,122.542831 120.013397,122.776978 
z"/>
<path fill="#02AFDA" opacity="1.000000" stroke="none" 
	d="
M59.977707,89.398331 
	C57.295853,89.397835 55.040882,89.397835 51.883514,89.397835 
	C57.772293,79.191658 63.131088,69.904015 69.088249,59.579319 
	C74.904549,69.625267 80.310608,78.962631 85.744713,88.348442 
	C79.008095,90.687996 72.373581,89.733757 70.231316,87.091049 
	C66.565643,87.951920 63.485119,88.675369 59.977707,89.398331 
z"/>
<path fill="#C7C7C7" opacity="1.000000" stroke="none" 
	d="
M102.936920,101.970055 
	C98.959190,108.843399 95.153839,115.387711 90.910522,122.685219 
	C85.062401,112.555260 79.646629,103.174194 73.543045,92.601715 
	C79.998154,94.194359 86.214516,89.840134 90.747246,96.369011 
	C95.187691,90.234215 101.464005,93.952133 108.091843,92.569695 
	C106.054779,96.278427 104.582039,98.959724 102.936920,101.970055 
z"/>
<path fill="#C7C7C7" opacity="1.000000" stroke="none" 
	d="
M50.664658,93.017639 
	C55.216740,92.940079 59.330498,92.940079 64.363419,92.940079 
	C58.559719,103.006729 53.130962,112.423027 47.176449,122.751266 
	C41.364548,112.679825 35.910225,103.228027 29.718218,92.497902 
	C36.534004,94.085487 42.841446,89.914604 47.217854,96.443184 
	C48.310005,95.227783 49.268169,94.161491 50.664658,93.017639 
z"/>
<path fill="#01AFDA" opacity="1.000000" stroke="none" 
	d="
M16.860828,70.195145 
	C14.892495,66.729797 13.099517,63.586533 10.822172,59.594128 
	C15.647078,59.594128 19.726065,59.513569 23.796715,59.661869 
	C24.613983,59.691647 25.725428,60.399353 26.150272,61.119514 
	C31.513706,70.211151 36.776058,79.362419 42.568886,89.370331 
	C37.697990,89.370331 33.749409,89.604759 29.857645,89.237350 
	C28.574844,89.116257 27.063610,87.671097 26.301056,86.434196 
	C23.080400,81.210144 20.102718,75.836296 16.860828,70.195145 
z"/>
</svg>