<?xml version="1.0" standalone="no"?>
<!DOCTYPE svg PUBLIC "-//W3C//DTD SVG 20010904//EN"
 "http://www.w3.org/TR/2001/REC-SVG-20010904/DTD/svg10.dtd">
<svg version="1.0" xmlns="http://www.w3.org/2000/svg"
 width="188.000000pt" height="188.000000pt" viewBox="0 0 188.000000 188.000000"
 preserveAspectRatio="xMidYMid meet">

<g transform="translate(0.000000,188.000000) scale(0.100000,-0.100000)"
fill="#000000" stroke="none">
<path d="M380 945 l0 -405 41 -20 c22 -12 47 -20 54 -18 8 2 113 84 235 183
122 99 225 180 230 180 5 0 108 -81 230 -180 122 -99 227 -181 235 -183 7 -2
32 6 54 18 l41 20 0 405 0 405 -55 0 -55 0 0 -339 c0 -187 -3 -342 -8 -345 -4
-2 -97 69 -207 160 -174 142 -205 163 -235 163 -30 0 -61 -21 -235 -163 -110
-91 -203 -162 -207 -160 -5 3 -8 158 -8 345 l0 339 -55 0 -55 0 0 -405z"/>
<path d="M628 1329 l-38 -19 0 -209 c0 -114 3 -211 6 -214 4 -4 29 12 55 34
l49 41 0 119 c0 65 3 119 6 119 3 0 49 -31 103 -70 74 -52 107 -70 131 -70 24
0 57 18 131 70 54 39 100 70 103 70 3 0 6 -54 6 -119 l0 -119 49 -41 c26 -22
51 -38 55 -34 3 3 6 100 6 215 l0 208 -44 22 -45 21 -120 -87 c-66 -47 -127
-89 -135 -92 -8 -3 -67 33 -139 85 -69 50 -129 91 -133 91 -5 -1 -26 -10 -46
-21z"/>
</g>
</svg>
